<?xml version="1.0" encoding="utf-8"?>
<svg id="frappe-symbols" aria-hidden="true" style="position: absolute; width: 0; height: 0; overflow: hidden;" class="d-block" xmlns="http://www.w3.org/2000/svg">
    <symbol id="icon-hr_main" viewBox="0 0 24 24" xmlns="http://www.w3.org/2000/svg">
        <!-- Paste your SVG path content here (without <svg> tags) -->
        
        <path d="M7.5 2.5H3.33333C2.8731 2.5 2.5 2.8731 2.5 3.33333V9.16667C2.5 9.6269 2.8731 10 3.33333 10H7.5C7.96024 10 8.33333 9.6269 8.33333 9.16667V3.33333C8.33333 2.8731 7.96024 2.5 7.5 2.5Z" stroke="currentColor" stroke-width="1.66667" stroke-linecap="round" stroke-linejoin="round"/>
        <path d="M16.666 2.5H12.4993C12.0391 2.5 11.666 2.8731 11.666 3.33333V5.83333C11.666 6.29357 12.0391 6.66667 12.4993 6.66667H16.666C17.1263 6.66667 17.4993 6.29357 17.4993 5.83333V3.33333C17.4993 2.8731 17.1263 2.5 16.666 2.5Z" stroke="currentColor" stroke-width="1.66667" stroke-linecap="round" stroke-linejoin="round"/>
        <path d="M16.666 10H12.4993C12.0391 10 11.666 10.3731 11.666 10.8333V16.6667C11.666 17.1269 12.0391 17.5 12.4993 17.5H16.666C17.1263 17.5 17.4993 17.1269 17.4993 16.6667V10.8333C17.4993 10.3731 17.1263 10 16.666 10Z" stroke="currentColor" stroke-width="1.66667" stroke-linecap="round" stroke-linejoin="round"/>
        <path d="M7.5 13.333H3.33333C2.8731 13.333 2.5 13.7061 2.5 14.1663V16.6663C2.5 17.1266 2.8731 17.4997 3.33333 17.4997H7.5C7.96024 17.4997 8.33333 17.1266 8.33333 16.6663V14.1663C8.33333 13.7061 7.96024 13.333 7.5 13.333Z" stroke="currentColor" stroke-width="1.66667" stroke-linecap="round" stroke-linejoin="round"/>
        
    </symbol>

    <symbol id="icon-hr_work_bag" viewBox="0 0 24 24" xmlns="http://www.w3.org/2000/svg">
    <path d="M13.3327 16.667V3.33366C13.3327 2.89163 13.1571 2.46771 12.8445 2.15515C12.532 1.84259 12.108 1.66699 11.666 1.66699H8.33268C7.89065 1.66699 7.46673 1.84259 7.15417 2.15515C6.84161 2.46771 6.66602 2.89163 6.66602 3.33366V16.667" stroke="currentColor" stroke-width="1.66667" stroke-linecap="round" stroke-linejoin="round"/>
    <path d="M16.666 5H3.33268C2.41221 5 1.66602 5.74619 1.66602 6.66667V15C1.66602 15.9205 2.41221 16.6667 3.33268 16.6667H16.666C17.5865 16.6667 18.3327 15.9205 18.3327 15V6.66667C18.3327 5.74619 17.5865 5 16.666 5Z" stroke="currentColor" stroke-width="1.66667" stroke-linecap="round" stroke-linejoin="round"/>

    </symbol>

    <symbol id="icon-hr_sheet" viewBox="0 0 24 24" xmlns="http://www.w3.org/2000/svg">
        <path d="M12.5007 1.66699H5.00065C4.55862 1.66699 4.1347 1.84259 3.82214 2.15515C3.50958 2.46771 3.33398 2.89163 3.33398 3.33366V16.667C3.33398 17.109 3.50958 17.5329 3.82214 17.8455C4.1347 18.1581 4.55862 18.3337 5.00065 18.3337H15.0007C15.4427 18.3337 15.8666 18.1581 16.1792 17.8455C16.4917 17.5329 16.6673 17.109 16.6673 16.667V5.83366L12.5007 1.66699Z" stroke="currentColor" stroke-width="1.66667" stroke-linecap="round" stroke-linejoin="round"/>
        <path d="M11.666 1.66699V5.00033C11.666 5.44235 11.8416 5.86628 12.1542 6.17884C12.4667 6.4914 12.8907 6.66699 13.3327 6.66699H16.666" stroke="currentColor" stroke-width="1.66667" stroke-linecap="round" stroke-linejoin="round"/>
        <path d="M8.33268 7.5H6.66602" stroke="currentColor" stroke-width="1.66667" stroke-linecap="round" stroke-linejoin="round"/>
        <path d="M13.3327 10.833H6.66602" stroke="currentColor" stroke-width="1.66667" stroke-linecap="round" stroke-linejoin="round"/>
        <path d="M13.3327 14.167H6.66602" stroke="currentColor" stroke-width="1.66667" stroke-linecap="round" stroke-linejoin="round"/>
    </symbol>
    
    <symbol id="icon-hr_list" viewBox="0 0 24 24" xmlns="http://www.w3.org/2000/svg">
        <path d="M10.834 4.16699H17.5007" stroke="currentColor" stroke-width="1.66667" stroke-linecap="round" stroke-linejoin="round"/>
        <path d="M10.834 10H17.5007" stroke="currentColor" stroke-width="1.66667" stroke-linecap="round" stroke-linejoin="round"/>
        <path d="M10.834 15.833H17.5007" stroke="currentColor" stroke-width="1.66667" stroke-linecap="round" stroke-linejoin="round"/>
        <path d="M2.5 14.1667L4.16667 15.8333L7.5 12.5" stroke="currentColor" stroke-width="1.66667" stroke-linecap="round" stroke-linejoin="round"/>
        <path d="M6.66667 3.33301H3.33333C2.8731 3.33301 2.5 3.7061 2.5 4.16634V7.49967C2.5 7.95991 2.8731 8.33301 3.33333 8.33301H6.66667C7.1269 8.33301 7.5 7.95991 7.5 7.49967V4.16634C7.5 3.7061 7.1269 3.33301 6.66667 3.33301Z" stroke="currentColor" stroke-width="1.66667" stroke-linecap="round" stroke-linejoin="round"/>
    </symbol>

    <symbol id="icon-hr_employee" viewBox="0 0 24 24" xmlns="http://www.w3.org/2000/svg">
    <path d="M13.3327 17.5V15.8333C13.3327 14.9493 12.9815 14.1014 12.3564 13.4763C11.7313 12.8512 10.8834 12.5 9.99935 12.5H4.99935C4.11529 12.5 3.26745 12.8512 2.64233 13.4763C2.01721 14.1014 1.66602 14.9493 1.66602 15.8333V17.5" stroke="currentColor" stroke-width="1.66667" stroke-linecap="round" stroke-linejoin="round"/>
<path d="M13.334 2.60645C14.0488 2.79175 14.6818 3.20917 15.1337 3.79316C15.5856 4.37716 15.8308 5.09469 15.8308 5.83311C15.8308 6.57154 15.5856 7.28906 15.1337 7.87306C14.6818 8.45706 14.0488 8.87447 13.334 9.05978" stroke="currentColor" stroke-width="1.66667" stroke-linecap="round" stroke-linejoin="round"/>
<path d="M18.334 17.5001V15.8334C18.3334 15.0948 18.0876 14.3774 17.6351 13.7937C17.1826 13.2099 16.5491 12.793 15.834 12.6084" stroke="currentColor" stroke-width="1.66667" stroke-linecap="round" stroke-linejoin="round"/>
<path d="M7.49935 9.16667C9.3403 9.16667 10.8327 7.67428 10.8327 5.83333C10.8327 3.99238 9.3403 2.5 7.49935 2.5C5.6584 2.5 4.16602 3.99238 4.16602 5.83333C4.16602 7.67428 5.6584 9.16667 7.49935 9.16667Z" stroke="currentColor" stroke-width="1.66667" stroke-linecap="round" stroke-linejoin="round"/>

    </symbol>
    
    <symbol id="icon-hr_dollar" viewBox="0 0 24 24" xmlns="http://www.w3.org/2000/svg">
    <path d="M10 1.66699V18.3337" stroke="currentColor" stroke-width="1.66667" stroke-linecap="round" stroke-linejoin="round"/>
<path d="M14.1667 4.16699H7.91667C7.14312 4.16699 6.40125 4.47428 5.85427 5.02126C5.30729 5.56825 5 6.31011 5 7.08366C5 7.85721 5.30729 8.59907 5.85427 9.14605C6.40125 9.69303 7.14312 10.0003 7.91667 10.0003H12.0833C12.8569 10.0003 13.5987 10.3076 14.1457 10.8546C14.6927 11.4016 15 12.1434 15 12.917C15 13.6905 14.6927 14.4324 14.1457 14.9794C13.5987 15.5264 12.8569 15.8337 12.0833 15.8337H5" stroke="currentColor" stroke-width="1.66667" stroke-linecap="round" stroke-linejoin="round"/>

    </symbol>

    <symbol id="icon-hr_chekbox" viewBox="0 0 24 24" xmlns="http://www.w3.org/2000/svg">
    <path d="M17.5 8.88V15.8333C17.5 16.2754 17.3244 16.6993 17.0118 17.0118C16.6993 17.3244 16.2754 17.5 15.8333 17.5H4.16667C3.72464 17.5 3.30072 17.3244 2.98816 17.0118C2.67559 16.6993 2.5 16.2754 2.5 15.8333V4.16667C2.5 3.72464 2.67559 3.30072 2.98816 2.98816C3.30072 2.67559 3.72464 2.5 4.16667 2.5H14.4533" stroke="currentColor" stroke-width="1.66667" stroke-linecap="round" stroke-linejoin="round"/>
<path d="M7.5 9.16634L10 11.6663L18.3333 3.33301" stroke="currentColor" stroke-width="1.66667" stroke-linecap="round" stroke-linejoin="round"/>

    </symbol>

    <symbol id="icon-hr_chart" viewBox="0 0 24 24" xmlns="http://www.w3.org/2000/svg">
    <path d="M2.5 2.5V15.8333C2.5 16.2754 2.67559 16.6993 2.98816 17.0118C3.30072 17.3244 3.72464 17.5 4.16667 17.5H17.5" stroke="currentColor" stroke-width="1.66667" stroke-linecap="round" stroke-linejoin="round"/>
<path d="M15 14.1667V7.5" stroke="currentColor" stroke-width="1.66667" stroke-linecap="round" stroke-linejoin="round"/>
<path d="M10.834 14.167V4.16699" stroke="currentColor" stroke-width="1.66667" stroke-linecap="round" stroke-linejoin="round"/>
<path d="M6.66602 14.167V11.667" stroke="currentColor" stroke-width="1.66667" stroke-linecap="round" stroke-linejoin="round"/>

    </symbol>

    <symbol id="icon-hr_calendar" viewBox="0 0 24 24" xmlns="http://www.w3.org/2000/svg">
    <path d="M6.66602 1.66699V5.00033" stroke="currentColor" stroke-width="1.66667" stroke-linecap="round" stroke-linejoin="round"/>
<path d="M13.334 1.66699V5.00033" stroke="currentColor" stroke-width="1.66667" stroke-linecap="round" stroke-linejoin="round"/>
<path d="M15.8333 3.33301H4.16667C3.24619 3.33301 2.5 4.0792 2.5 4.99967V16.6663C2.5 17.5868 3.24619 18.333 4.16667 18.333H15.8333C16.7538 18.333 17.5 17.5868 17.5 16.6663V4.99967C17.5 4.0792 16.7538 3.33301 15.8333 3.33301Z" stroke="currentColor" stroke-width="1.66667" stroke-linecap="round" stroke-linejoin="round"/>
<path d="M2.5 8.33301H17.5" stroke="currentColor" stroke-width="1.66667" stroke-linecap="round" stroke-linejoin="round"/>
    </symbol>

    <symbol id="icon-hr_settings" viewBox="0 0 24 24" xmlns="http://www.w3.org/2000/svg">
        <path d="M8.05893 3.44712C8.10485 2.96407 8.32921 2.51549 8.68818 2.18902C9.04716 1.86255 9.51495 1.68164 10.0002 1.68164C10.4854 1.68164 10.9532 1.86255 11.3122 2.18902C11.6712 2.51549 11.8955 2.96407 11.9414 3.44712C11.969 3.75916 12.0714 4.05997 12.2399 4.32407C12.4084 4.58817 12.638 4.80779 12.9093 4.96435C13.1807 5.12091 13.4857 5.20979 13.7987 5.22347C14.1116 5.23715 14.4233 5.17523 14.7073 5.04295C15.1482 4.84277 15.6478 4.8138 16.1089 4.96169C16.57 5.10958 16.9596 5.42374 17.2019 5.84304C17.4441 6.26233 17.5217 6.75676 17.4195 7.23009C17.3173 7.70343 17.0426 8.1218 16.6489 8.40378C16.3926 8.58366 16.1833 8.82262 16.0389 9.10047C15.8944 9.37832 15.819 9.68687 15.819 10C15.819 10.3132 15.8944 10.6217 16.0389 10.8996C16.1833 11.1774 16.3926 11.4164 16.6489 11.5963C17.0426 11.8783 17.3173 12.2966 17.4195 12.77C17.5217 13.2433 17.4441 13.7377 17.2019 14.157C16.9596 14.5763 16.57 14.8905 16.1089 15.0384C15.6478 15.1863 15.1482 15.1573 14.7073 14.9571C14.4233 14.8248 14.1116 14.7629 13.7987 14.7766C13.4857 14.7903 13.1807 14.8792 12.9093 15.0357C12.638 15.1923 12.4084 15.4119 12.2399 15.676C12.0714 15.9401 11.969 16.2409 11.9414 16.553C11.8955 17.036 11.6712 17.4846 11.3122 17.8111C10.9532 18.1375 10.4854 18.3184 10.0002 18.3184C9.51495 18.3184 9.04716 18.1375 8.68818 17.8111C8.32921 17.4846 8.10485 17.036 8.05893 16.553C8.03138 16.2408 7.92901 15.9399 7.76049 15.6757C7.59196 15.4115 7.36224 15.1918 7.09079 15.0352C6.81934 14.8786 6.51416 14.7898 6.20108 14.7762C5.88801 14.7626 5.57627 14.8247 5.29227 14.9571C4.85134 15.1573 4.3517 15.1863 3.8906 15.0384C3.42949 14.8905 3.03991 14.5763 2.79767 14.157C2.55543 13.7377 2.47786 13.2433 2.58007 12.77C2.68227 12.2966 2.95693 11.8783 3.3506 11.5963C3.60695 11.4164 3.81621 11.1774 3.96067 10.8996C4.10514 10.6217 4.18056 10.3132 4.18056 10C4.18056 9.68687 4.10514 9.37832 3.96067 9.10047C3.81621 8.82262 3.60695 8.58366 3.3506 8.40378C2.95749 8.12166 2.68331 7.70345 2.58135 7.23044C2.47939 6.75743 2.55694 6.2634 2.79892 5.84438C3.0409 5.42536 3.43003 5.11127 3.89067 4.96315C4.35132 4.81504 4.85059 4.84348 5.29143 5.04295C5.5754 5.17523 5.88705 5.23715 6.20002 5.22347C6.51298 5.20979 6.81804 5.12091 7.08938 4.96435C7.36072 4.80779 7.59034 4.58817 7.75882 4.32407C7.9273 4.05997 8.02967 3.75916 8.05727 3.44712" stroke="currentColor" stroke-width="1.66667" stroke-linecap="round" stroke-linejoin="round"/>
        <path d="M10 12.5C11.3807 12.5 12.5 11.3807 12.5 10C12.5 8.61929 11.3807 7.5 10 7.5C8.61929 7.5 7.5 8.61929 7.5 10C7.5 11.3807 8.61929 12.5 10 12.5Z" stroke="currentColor" stroke-width="1.66667" stroke-linecap="round" stroke-linejoin="round"/>

    </symbol>


</svg>
        